<?xml version="1.0"?>
<!--?xml version="1.0" encoding="UTF-8" standalone="no"?-->
<!-- Created with Inkscape (http://www.inkscape.org/) -->

<svg xmlns:svg="http://www.w3.org/2000/svg" xmlns="http://www.w3.org/2000/svg" version="1.1" width="720" height="720" viewBox="0 0 575.999971651997 575.9999732744195" id="svg2">
  <defs id="defs4"></defs>
  <path d="m 354.8458664774887,150.7313507691993 127.308025894964,73.5013230204574 73.5013230204575,127.3080258949641 -1e-13,147.0026460409147 -73.5013230204573,127.308025894964 -127.3080258949641,73.5013230204573 -147.0026460409147,0 -127.3080258949641,-73.5013230204573 -73.501323020457377,-127.308025894964 0,-147.0026460409148 73.501323020457334,-127.308025894964 127.30802589496414,-73.5013230204574 147.0026460409148,0 z" transform="matrix(0.9624124520113607,0,0,0.9624124520113605,17.23051253741785,-121.0657672821703)" id="path3723" style="fill:none;stroke:#000000;stroke-width:4.9874668121;stroke-opacity:1"></path>
  <path d="m 358.7385929801138,551.999974387984 -141.477177028395,-528.00001278138506 0,528.00001278138574" id="path3725" style="fill:none;stroke:#000000;stroke-width:4.7999997139;stroke-opacity:1"></path>
  <path d="M 217.2614159517188,23.99996160659901 481.2614223424117,481.2613858737872" id="path3727" style="fill:none;stroke:#000000;stroke-width:4.7999997139;stroke-opacity:1"></path>
  <path d="M 552.0000108566082,358.7385565114893 217.2614159517188,23.99996160659901" id="path3729" style="fill:none;stroke:#000000;stroke-width:4.7999997139;stroke-opacity:1"></path>
  <path d="M 552.0000108566082,217.2613794830946 217.2614159517188,23.99996160659901" id="path3731" style="fill:none;stroke:#000000;stroke-width:4.7999997139;stroke-opacity:1"></path>
  <path d="M 481.2614223424117,94.73855012079636 217.2614159517188,23.99996160659901" id="path3733" style="fill:none;stroke:#000000;stroke-width:4.7999997139;stroke-opacity:1"></path>
  <path d="M 94.73858658942062,481.2613858737872 217.2614159517188,23.99996160659901" id="path3735" style="fill:none;stroke:#000000;stroke-width:4.7999997139;stroke-opacity:1"></path>
  <path d="M 23.99999807522301,358.7385565114893 217.2614159517188,23.99996160659901" id="path3737" style="fill:none;stroke:#000000;stroke-width:4.7999997139;stroke-opacity:1"></path>
  <path d="M 23.99999807522301,217.2613794830946 217.2614159517188,23.99996160659901" id="path3739" style="fill:none;stroke:#000000;stroke-width:4.7999997139;stroke-opacity:1"></path>
  <path d="M 358.7385929801138,23.99996160659901 552.0000108566082,217.2613794830945" id="path3741" style="fill:none;stroke:#000000;stroke-width:4.7999997139;stroke-opacity:1"></path>
  <path d="M 552.0000108566082,358.7385565114893 358.7385929801138,23.99996160659901" id="path3743" style="fill:none;stroke:#000000;stroke-width:4.7999997139;stroke-opacity:1"></path>
  <path d="M 481.2614223424116,481.2613858737872 358.7385929801135,23.99996160659901" id="path3745" style="fill:none;stroke:#000000;stroke-width:4.7999997139;stroke-opacity:1"></path>
  <path d="m 358.7385929801135,551.9999743879839 3e-13,-528.00001278138518" id="path3747" style="fill:none;stroke:#000000;stroke-width:4.7999997139;stroke-opacity:1"></path>
  <path d="M 217.2614159517188,551.999974387984 358.7385929801134,23.99996160659901" id="path3749" style="fill:none;stroke:#000000;stroke-width:4.7999997139;stroke-opacity:1"></path>
  <path d="M 94.73858658942062,481.2613858737872 358.7385929801134,23.99996160659901" id="path3751" style="fill:none;stroke:#000000;stroke-width:4.7999997139;stroke-opacity:1"></path>
  <path d="M 23.99999807522301,358.7385565114893 358.7385929801138,23.99996160659901" id="path3755" style="fill:none;stroke:#000000;stroke-width:4.7999997139;stroke-opacity:1"></path>
  <path d="M 23.99999807522301,217.2613794830945 358.7385929801134,23.99996160659901" id="path3757" style="fill:none;stroke:#000000;stroke-width:4.7999997139;stroke-opacity:1"></path>
  <path d="M 94.73858658942052,94.73855012079636 358.7385929801138,23.99996160659901" id="path3759" style="fill:none;stroke:#000000;stroke-width:4.7999997139;stroke-opacity:1"></path>
  <path d="M 481.2614223424116,94.73855012079626 552.0000108566082,358.7385565114892" id="path3761" style="fill:none;stroke:#000000;stroke-width:4.7999997139;stroke-opacity:1"></path>
  <path d="m 481.2614223424116,481.2613858737871 0,-386.52283575299088" id="path3763" style="fill:none;stroke:#000000;stroke-width:4.7999997139;stroke-opacity:1"></path>
  <path d="M 358.7385929801134,551.9999743879839 481.2614223424116,94.73855012079599" id="path3765" style="fill:none;stroke:#000000;stroke-width:4.7999997139;stroke-opacity:1"></path>
  <path d="M 217.2614159517188,551.999974387984 481.2614223424108,94.73855012079599" id="path3767" style="fill:none;stroke:#000000;stroke-width:4.7999997139;stroke-opacity:1"></path>
  <path d="M 94.73858658942062,481.2613858737871 481.2614223424117,94.73855012079636" id="path3769" style="fill:none;stroke:#000000;stroke-width:4.7999997139;stroke-opacity:1"></path>
  <path d="M 23.99999807522301,358.7385565114893 481.2614223424117,94.73855012079636" id="path3771" style="fill:none;stroke:#000000;stroke-width:4.7999997139;stroke-opacity:1"></path>
  <path d="M 23.99999807522301,217.2613794830946 481.2614223424108,94.73855012079599" id="path3773" style="fill:none;stroke:#000000;stroke-width:4.7999997139;stroke-opacity:1"></path>
  <path d="m 94.73858658942052,94.73855012079626 386.52283575299043,-3.4e-13" id="path3775" style="fill:none;stroke:#000000;stroke-width:4.7999997139;stroke-opacity:1"></path>
  <path d="m 94.73858658942052,94.73855012079619 457.26142426718786,122.52282936229821 -528.00001278138483,0" id="path3777" style="fill:none;stroke:#000000;stroke-width:4.7999997139;stroke-opacity:1"></path>
  <path d="M 23.999998075223,358.7385565114892 552.0000108566082,217.2613794830945 94.73858658942062,481.2613858737872" id="path3779" style="fill:none;stroke:#000000;stroke-width:4.7999997139;stroke-opacity:1"></path>
  <path d="M 217.2614159517188,551.999974387984 552.0000108566082,217.2613794830944 358.7385929801138,551.9999743879843" id="path3781" style="fill:none;stroke:#000000;stroke-width:4.7999997139;stroke-opacity:1"></path>
  <path d="M 481.2614223424116,481.2613858737872 552.0000108566082,217.2613794830945" id="path3783" style="fill:none;stroke:#000000;stroke-width:4.7999997139;stroke-opacity:1"></path>
  <path d="M 552.0000108566082,358.7385565114892 94.73858658942052,94.73855012079619" id="path3785" style="fill:none;stroke:#000000;stroke-width:4.7999997139;stroke-opacity:1"></path>
  <path d="M 23.99999807522301,217.2613794830946 552.0000108566082,358.7385565114893" id="path3787" style="fill:none;stroke:#000000;stroke-width:4.7999997139;stroke-opacity:1"></path>
  <path d="m 552.0000108566082,358.7385565114888 -528.00001278138529,3e-13" id="path3789" style="fill:none;stroke:#000000;stroke-width:4.7999997139;stroke-opacity:1"></path>
  <path d="M 94.73858658942062,481.2613858737868 552.0000108566082,358.7385565114893 217.2614159517188,551.999974387984" id="path3791" style="fill:none;stroke:#000000;stroke-width:4.7999997139;stroke-opacity:1"></path>
  <path d="M 358.7385929801134,551.9999743879839 552.0000108566082,358.7385565114893" id="path3793" style="fill:none;stroke:#000000;stroke-width:4.7999997139;stroke-opacity:1"></path>
  <path d="M 481.2614223424116,481.2613858737868 94.73858658942052,94.73855012079619" id="path3795" style="fill:none;stroke:#000000;stroke-width:4.7999997139;stroke-opacity:1"></path>
  <path d="M 23.999998075223,217.2613794830945 481.2614223424108,481.2613858737863 23.9999980752229,358.7385565114892" id="path3797" style="fill:none;stroke:#000000;stroke-width:4.7999997139;stroke-opacity:1"></path>
  <path d="m 94.73858658942062,481.2613858737863 386.52283575299111,6e-13" id="path3799" style="fill:none;stroke:#000000;stroke-width:4.7999997139;stroke-opacity:1"></path>
  <path d="M 217.2614159517188,551.999974387984 481.2614223424117,481.2613858737868" id="path3801" style="fill:none;stroke:#000000;stroke-width:4.7999997139;stroke-opacity:1"></path>
  <path d="M 358.7385929801134,551.9999743879839 94.73858658942052,94.73855012079636" id="path3803" style="fill:none;stroke:#000000;stroke-width:4.7999997139;stroke-opacity:1"></path>
  <path d="M 23.99999807522301,217.2613794830945 358.7385929801134,551.9999743879839 23.9999980752229,358.7385565114892" id="path3805" style="fill:none;stroke:#000000;stroke-width:4.7999997139;stroke-opacity:1"></path>
  <path d="M 358.7385929801138,551.999974387984 94.73858658942062,481.2613858737872" id="path3807" style="fill:none;stroke:#000000;stroke-width:4.7999997139;stroke-opacity:1"></path>
  <path d="M 217.2614159517188,551.9999743879839 94.73858658942052,94.73855012079599" id="path3809" style="fill:none;stroke:#000000;stroke-width:4.7999997139;stroke-opacity:1"></path>
  <path d="M 23.999998075223,217.2613794830945 217.2614159517188,551.9999743879839 23.99999807522305,358.7385565114893" id="path3811" style="fill:none;stroke:#000000;stroke-width:4.7999997139;stroke-opacity:1"></path>
  <path d="m 94.73858658942052,94.73855012079589 9.9e-14,386.52283575299134 -70.7385885141976,-264.0000063906928" id="path3813" style="fill:none;stroke:#000000;stroke-width:4.7999997139;stroke-opacity:1"></path>
  <path d="M 23.9999980752229,358.7385565114888 94.73858658942052,94.73855012079636" id="path3815" style="fill:none;stroke:#000000;stroke-width:4.7999997139;stroke-opacity:1"></path>
</svg>
